<svg id="Layer_1" data-name="Layer 1" xmlns="http://www.w3.org/2000/svg" xmlns:xlink="http://www.w3.org/1999/xlink" viewBox="0 0 400.3 240.99"><defs><radialGradient id="radial-gradient" cx="2" cy="2" r="2" gradientUnits="userSpaceOnUse"><stop offset=".02" stop-color="#ffe4c1"/><stop offset=".3" stop-color="#d8574f"/><stop offset="1" stop-color="#f79421" stop-opacity="0"/></radialGradient><symbol id="RED" data-name="RED" viewBox="0 0 4 4"><circle cx="2" cy="2" r="2" fill="url(#radial-gradient)"/></symbol><style>.cls-2,.cls-3,.cls-4{fill:none;stroke-linecap:round;stroke-linejoin:round;stroke-width:.25px;stroke-dasharray:.51 .51 .51 .51 .51 .51}.cls-2{stroke:#6dba65}.cls-3{stroke:#df796e}.cls-4{stroke:#b78fc1}</style></defs><g id="Layer_1-2" data-name="Layer 1"><path class="cls-2" d="M.13 88s25.1 66.74 121.47 50.08S221-28.56 309 36.44s51.16-34.56 91.16-8.56" transform="translate(0 -.03)"/><path class="cls-2" d="M1.23 89.22S30 154 124.13 135.81 223.07-28 308.33 35.44s52.19-29 91.8-4.7" transform="translate(0 -.03)"/><path class="cls-2" d="M2.33 90.44s32.38 62.89 124.34 43.11 98.5-161 181-99 53.22-23.58 92.45-.9" transform="translate(0 -.03)"/><path class="cls-2" d="M3.44 91.66s36 61 125.76 39.63S227.26-26.86 307 33.59s54.25-18.1 93.09 2.92" transform="translate(0 -.03)"/><path class="cls-2" d="M4.54 92.89s39.65 59.05 127.2 36.11 97.62-155.28 174.65-96.34 55.28-12.66 93.74 6.78" transform="translate(0 -.03)"/><path class="cls-2" d="M5.64 94.11s43.29 57.13 128.63 32.66 97.19-152.47 171.48-95 56.31-7.16 94.38 10.55" transform="translate(0 -.03)"/><path class="cls-2" d="M6.74 95.34s46.93 55.2 130.06 29.18 96.75-149.64 168.33-93.73 57.34-1.7 95 14.35" transform="translate(0 -.03)"/><path class="cls-2" d="M7.84 96.56s50.56 53.28 131.5 25.7 96.31-146.82 165.12-92.41 58.37 3.78 95.67 18.15" transform="translate(0 -.03)"/><path class="cls-2" d="M9 97.78S63.13 149.14 141.87 120s95.88-143.95 161.94-91.08 59.4 9.25 96.32 22" transform="translate(0 -.03)"/><path class="cls-2" d="M10.05 99s57.83 49.43 134.35 18.73S239.84-23.37 303.13 28s60.43 14.72 97 25.8" transform="translate(0 -.03)"/><path class="cls-2" d="M11.13 100.23s61.49 47.51 135.81 15.21 95-138.27 155.58-88.44S364 47.2 400.13 56.61" transform="translate(0 -.03)"/><path class="cls-2" d="M12.25 101.44S77.36 147 149.47 113.2 244-22.23 301.88 26.09s62.49 25.66 98.25 33.42" transform="translate(0 -.03)"/><path class="cls-2" d="M13.35 102.68S82.13 146.34 152 111s94.13-132.63 149.23-85.83 63.53 31.14 98.9 37.27" transform="translate(0 -.03)"/><path class="cls-2" d="M14.45 103.91s72.39 41.73 140.08 4.79S248.23-21 300.59 24.24s64.54 36.6 99.54 41.05" transform="translate(0 -.03)"/><path class="cls-2" d="M15.56 105.13s76 39.81 141.51 1.32S250.33-20.47 299.94 23.3s65.59 42.08 100.19 44.86" transform="translate(0 -.03)"/><path class="cls-2" d="M16.66 106.35s79.65 37.89 142.94-2.16 92.83-124.08 139.7-81.82S365.91 69.92 400.13 71" transform="translate(0 -.03)"/><path class="cls-2" d="M17.76 107.58s83.29 36 144.37-5.65 92.39-121.24 136.52-80.49 67.65 53 101.48 52.48" transform="translate(0 -.03)"/><path class="cls-2" d="M18.86 108.8s86.93 34 145.81-9.13 92-118.4 133.33-79.17S366.68 79 400.13 76.8" transform="translate(0 -.03)"/><path class="cls-2" d="M20 110s90.57 32.11 147.24-12.59 91.48-115.56 130.12-77.85 69.71 64 102.77 60.11" transform="translate(0 -.03)"/><path class="cls-2" d="M21.07 111.25s94.2 30.19 148.66-16.1 91.08-112.71 127-76.52 70.73 69.43 103.41 63.92" transform="translate(0 -.03)"/><path class="cls-2" d="M22.13 112.44s97.87 28.27 150.1-19.58S262.87-17 296 17.66s71.81 74.94 104.1 67.78" transform="translate(0 -.03)"/><path class="cls-2" d="M23.27 113.7S124.74 140 174.8 90.64s90.2-107 120.63-73.88 72.79 80.37 104.7 71.54" transform="translate(0 -.03)"/><path class="cls-2" d="M24.37 114.92s105.11 24.42 153-26.54 89.76-104.21 117.41-72.56 73.83 85.85 105.35 75.36" transform="translate(0 -.03)"/><path class="cls-2" d="M25.47 116.15s108.75 22.49 154.4-30S269.2-15.24 294.13 14.88s74.86 91.32 106 79.18" transform="translate(0 -.03)"/><path class="cls-2" d="M26.58 117.37S139 138 182.4 83.86 271.3-14.66 293.49 14s75.89 96.79 106.64 83" transform="translate(0 -.03)"/><path class="cls-2" d="M27.68 118.59s116 18.66 157.25-37S273.39-14.09 292.84 13s76.93 102.27 107.29 86.81" transform="translate(0 -.03)"/><path class="cls-2" d="M28.78 119.82s119.66 16.73 158.68-40.48 88-92.84 104.74-67.26 77.93 107.73 107.93 90.61" transform="translate(0 -.03)"/><path class="cls-2" d="M29.88 121S153.18 135.85 190 77s87.59-90 101.55-65.9 79 113.21 108.58 94.43" transform="translate(0 -.03)"/><path class="cls-2" d="M31 122.27s126.93 12.88 161.55-47.45 87.15-87.16 98.38-64.61 80 118.67 109.22 98.23" transform="translate(0 -.03)"/><path class="cls-2" d="M32.13 123.49s130.57 11 163-50.92 86.72-84.33 95.2-63.3 81 124.17 109.8 102.05" transform="translate(0 -.03)"/><path class="cls-2" d="M33.19 124.72s134.2 9 164.41-54.41 86.28-81.49 92-62S371.69 138 400.13 114.2" transform="translate(0 -.03)"/><path class="cls-2" d="M34.29 125.94s137.84 7.11 165.84-57.89S286-10.56 289 7.44s83.16 135.05 111.16 109.64" transform="translate(0 -.03)"/><path class="cls-3" d="M.13 88S34 199.91 130.38 183.24 93.78-8.18 181.78 56.82s178.35 3 218.35 29" transform="translate(0 -.03)"/><path class="cls-3" d="M2 90.6s34.68 109.47 129.84 92.51C227.18 166.06 97.23-5 183.55 57.83c85.91 62.54 177 5.6 216.58 29.94" transform="translate(0 -.03)"/><path class="cls-3" d="M3.85 93.2s35.47 107 129.43 89.8c94.33-17.43-32.61-184.83 52-124.13 83.85 60.08 175.62 8.21 214.85 30.89" transform="translate(0 -.03)"/><path class="cls-3" d="M5.71 95.8s36.26 104.61 129 87C228 165 104.13 1.3 187.13 59.84c81.71 57.64 174.2 10.83 213 31.85" transform="translate(0 -.03)"/><path class="cls-3" d="M7.56 98.44s37.06 102.17 128.62 84.3c92.29-18.2-28.64-178.26 52.69-121.86 79.59 55.18 172.8 13.44 211.26 32.81" transform="translate(0 -.03)"/><path class="cls-3" d="M9.42 101s37.85 99.73 128.21 81.56C228.9 164 111 7.57 190.63 61.85c77.5 52.74 171.43 16.06 209.5 33.77" transform="translate(0 -.03)"/><path class="cls-3" d="M11.28 103.62s38.64 97.29 127.79 78.82c90.26-19-24.69-171.68 53.34-119.58 75.35 50.3 170 18.67 207.72 34.72" transform="translate(0 -.03)"/><path class="cls-3" d="M13.13 106.22s39.43 94.86 127.38 76.09c89.24-19.31-22.74-168.4 53.66-118.45 73.21 47.87 168.65 21.29 206 35.68" transform="translate(0 -.03)"/><path class="cls-3" d="M15 108.82s40.23 92.43 127 73.35c88.22-19.72-20.79-165.1 54-117.3 71.06 45.43 167.25 23.9 204.17 36.63" transform="translate(0 -.03)"/><path class="cls-3" d="M16.86 111.44s41 90 126.56 70.61c87.2-20.1-18.85-161.82 54.31-116.17 68.91 43 165.87 26.56 202.4 37.56" transform="translate(0 -.03)"/><path class="cls-3" d="M18.72 114s41.85 87.73 126.15 67.88C231.09 161.6 128 23.37 199.5 66.91 266.24 107.44 364 96 400.13 105.44" transform="translate(0 -.03)"/><path class="cls-3" d="M20.58 116.63s42.65 85.3 125.74 65.14c85.2-20.67-15-155.24 55-113.89 64.57 38.18 163.1 31.75 198.86 39.56" transform="translate(0 -.03)"/><path class="cls-3" d="M22.43 119.24s43.45 82.87 125.33 62.4c84.2-21-13.09-152 55.28-112.75 62.38 35.77 161.72 34.36 197.09 40.46" transform="translate(0 -.03)"/><path class="cls-3" d="M24.29 121.84s44.24 80.44 124.92 59.67C232.39 160.08 138 32.84 204.82 69.89c60.17 33.38 160.32 37 195.31 41.42" transform="translate(0 -.03)"/><path class="cls-3" d="M26.13 124.44s45 78 124.51 56.92c82.16-21.8-9.32-145.36 55.93-110.47 58 31 158.94 39.59 193.54 42.37" transform="translate(0 -.03)"/><path class="cls-3" d="M28 127.05s45.83 75.58 124.12 54.19c81.14-22.18-7.47-142.07 56.25-109.33 55.71 28.62 157.55 42.2 191.77 43.32" transform="translate(0 -.03)"/><path class="cls-3" d="M29.87 129.65s46.63 73.15 123.69 51.46c80.12-22.56-5.63-138.77 56.57-108.2 53.46 26.27 156.17 44.82 190 44.28" transform="translate(0 -.03)"/><path class="cls-3" d="M31.73 132.26S79.13 203 155 181c79.12-23-3.8-135.48 56.9-107 51.23 23.89 154.78 47.38 188.23 45.18" transform="translate(0 -.03)"/><path class="cls-3" d="M33.59 134.86s48.21 68.27 122.86 46c78.1-23.32-2-132.12 57.23-105.92 48.88 21.63 153.39 50.05 186.45 46.2" transform="translate(0 -.03)"/><path class="cls-3" d="M35.44 137.44s49 65.82 122.46 43.24C235 157 157.67 51.9 215.45 75.9c46.57 19.34 152 52.66 184.68 47.15" transform="translate(0 -.03)"/><path class="cls-3" d="M37.3 140.07s49.83 63.37 122.05 40.5c76.06-24.09 1.52-125.41 57.87-103.64C261.45 94 367.84 132.21 400.13 125" transform="translate(0 -.03)"/><path class="cls-3" d="M39.13 142.67s50.6 61 121.64 37.77c75-24.48 3.24-122 58.19-102.5C260.82 92.8 368.19 135.83 400.1 127" transform="translate(0 -.03)"/><path class="cls-3" d="M41 145.28s51.39 58.49 121.23 35c74-24.88 4.93-118.59 58.52-101.37 39.48 12.72 147.86 60.53 179.38 50.09" transform="translate(0 -.03)"/><path class="cls-3" d="M42.88 147.88s52.18 56.05 120.81 32.29c73-25.26 6.6-115.1 58.85-100.22 37 10.55 146.46 63.12 177.59 51" transform="translate(0 -.03)"/><path class="cls-3" d="M44.74 150.49s53 53.59 120.4 29.55c72-25.66 8.22-111.55 59.17-99.09 34.61 8.49 145.07 65.74 175.82 51.93" transform="translate(0 -.03)"/><path class="cls-3" d="M46.6 153.09s53.75 51.14 120 26.81c71-26.06 9.83-107.91 59.49-97.94 32.14 6.48 143.68 68.35 174 52.89" transform="translate(0 -.03)"/><path class="cls-3" d="M48.45 155.69S103 204.26 168 179.77c69.91-26.59 11.45-104.16 59.85-96.77 29.69 4.48 142.28 71 172.28 53.85" transform="translate(0 -.03)"/><path class="cls-3" d="M50.31 158.3s55.29 46.14 119.18 21.34c68.85-27 13-100.26 60.14-95.67 27.21 2.65 140.91 73.58 170.5 54.8" transform="translate(0 -.03)"/><path class="cls-3" d="M52.13 160.9s56.08 43.69 118.77 18.6c67.83-27.35 15.37-103.12 60.46-94.5 24.33 4.63 139.52 76.19 168.73 55.75" transform="translate(0 -.03)"/><path class="cls-3" d="M54 163.51s56.87 41.25 118.35 15.86c66.85-27.74 16.41-97.15 60.82-93.37 22.28 1.89 138.14 78.81 167 56.71" transform="translate(0 -.03)"/><path class="cls-3" d="M55.89 166.11s57.67 38.82 117.94 13.13c65.8-28.12 18-87.11 61.11-92.25 20-2.39 136.75 81.41 165.19 57.66" transform="translate(0 -.03)"/><path class="cls-3" d="M57.75 168.71s58.46 36.39 117.53 10.39c64.78-28.5 20.08-82 61.43-91.11 17.83-3.9 135.37 84 163.42 58.62" transform="translate(0 -.03)"/><path class="cls-4" d="M.13 88S30 269.54 92.58 230.55c97.12-60.48 115.78-47.06 136.36-47.06 81.19 0 131.19-76.83 171.19-50.83" transform="translate(0 -.03)"/><path class="cls-4" d="M1.5 92s32 175.23 94.5 136.15c96.11-60.07 114.6-46.13 135-45.85 79 1.07 129.6-72.88 169.21-48.54" transform="translate(0 -.03)"/><path class="cls-4" d="M2.87 96.09s34.26 168.83 96.49 129.66c95.09-59.67 113.42-45.19 133.55-44.64 76.79 2.12 128-68.94 167.22-46.25" transform="translate(0 -.03)"/><path class="cls-4" d="M4.23 100.14s36.44 162.46 98.52 123.21c94.07-59.27 112.23-44.26 132.14-43.43 74.55 3.14 126.4-65 165.24-44" transform="translate(0 -.03)"/><path class="cls-4" d="M5.6 104.19s38.64 156.1 100.53 116.75c93.05-58.86 111-43.32 130.73-42.2 72.3 4.11 124.79-61.05 163.25-41.68" transform="translate(0 -.03)"/><path class="cls-4" d="M7 108.24S47.81 258 109.54 218.54c92-58.45 109.82-42.4 129.32-41 70 5.05 123.2-57.1 161.27-39.39" transform="translate(0 -.03)"/><path class="cls-4" d="M8.34 112.29s43 143.38 104.59 103.85c91-58 108.61-41.48 127.92-39.78 67.76 6 121.59-53.15 159.28-37.1" transform="translate(0 -.03)"/><path class="cls-4" d="M9.71 116.34s45.24 137 106.61 97.4c90-57.65 107.39-40.56 126.51-38.57 65.48 6.82 120-49.2 157.3-34.81" transform="translate(0 -.03)"/><path class="cls-4" d="M11.07 120.44s47.45 130.61 108.64 90.9c89-57.24 106.17-39.65 125.11-37.35 63.19 7.64 118.39-45.27 155.31-32.55" transform="translate(0 -.03)"/><path class="cls-4" d="M12.44 124.44S62 248.61 123.13 208.94c87.83-57 104.93-38.74 123.69-36.14 60.87 8.42 116.78-41.36 153.31-30.24" transform="translate(0 -.03)"/><path class="cls-4" d="M13.81 128.49s51.75 117.8 112.69 78c86.81-56.64 103.7-37.83 122.29-34.93 58.58 9.15 115.19-37.37 151.34-28" transform="translate(0 -.03)"/><path class="cls-4" d="M15.18 132.54s54 111.43 114.71 71.6c85.78-56.24 102.46-36.94 120.88-33.72 56.23 9.84 113.6-33.42 149.36-25.66" transform="translate(0 -.03)"/><path class="cls-4" d="M16.54 136.59s56.15 105.07 116.74 65.15c84.76-55.85 101.21-36.05 119.48-32.51 53.95 10.47 112-29.47 147.37-23.37" transform="translate(0 -.03)"/><path class="cls-4" d="M17.91 140.64s58.35 98.7 118.76 58.7c83.74-55.45 100-35.17 118.07-31.29 51.63 11 110.4-25.54 145.39-21.09" transform="translate(0 -.03)"/><path class="cls-4" d="M19.28 144.69S79.82 237 140.07 196.93c82.71-55 98.7-34.29 116.66-30.07 49.3 11.58 108.8-21.59 143.4-18.81" transform="translate(0 -.03)"/><path class="cls-4" d="M20.65 148.74s62.74 86 122.81 45.79c81.69-54.64 97.44-33.43 115.25-28.86 47 12.05 107.2-17.64 141.42-16.52" transform="translate(0 -.03)"/><path class="cls-4" d="M22 152.79s65 79.65 124.85 39.34c80.67-54.24 96.18-32.58 113.85-27.65 44.67 12.47 105.6-13.69 139.43-14.23" transform="translate(0 -.03)"/><path class="cls-4" d="M23.38 156.84s67.15 73.25 126.86 32.89C229.9 135.9 245.15 158 262.68 163.3c42.36 12.83 104-9.75 137.45-12" transform="translate(0 -.03)"/><path class="cls-4" d="M24.75 160.89s69.38 66.89 128.88 26.44c78.64-53.43 93.65-30.93 111-25.22 40 13.14 102.4-5.81 135.46-9.66" transform="translate(0 -.03)"/><path class="cls-4" d="M26.13 164.94s71.55 60.53 130.9 20c77.63-53 92.39-30.13 109.63-24 37.76 13.39 100.8-1.86 133.48-7.37" transform="translate(0 -.03)"/><path class="cls-4" d="M27.49 169s73.75 54.18 132.93 13.54c76.6-52.61 91.13-29.34 108.22-22.8 35.48 13.59 99.2 2.09 131.49-5.08" transform="translate(0 -.03)"/><path class="cls-4" d="M28.86 173s76 47.82 135 7.09c75.59-52.2 89.88-28.59 106.81-21.59 33.22 13.74 97.6 6 129.51-2.79" transform="translate(0 -.03)"/><path class="cls-4" d="M30.22 177.09s78.16 41.47 137 .64c74.58-51.78 88.64-27.85 105.41-20.37 31 13.82 96 10 127.52-.51" transform="translate(0 -.03)"/><path class="cls-4" d="M31.59 181.14s80.37 35.12 139-5.81c73.58-51.37 87.42-27.15 104-19.16C303.35 170 369 170.1 400.13 158" transform="translate(0 -.03)"/><path class="cls-4" d="M33 185.19s82.54 28.81 141-12.27C246.53 122 260.17 146.44 276.56 155c26.57 13.85 92.8 17.87 123.55 4.07" transform="translate(0 -.03)"/><path class="cls-4" d="M34.33 189.24s84.86 22.53 143.05-18.72c71.65-50.38 85-25.85 101.18-16.73 24.43 13.8 91.21 21.82 121.57 6.36" transform="translate(0 -.03)"/><path class="cls-4" d="M35.69 193.29s87.07 16.15 145.08-25.17c70.64-50 83.89-25.27 99.78-15.51 22.32 13.7 89.6 25.76 119.58 8.64" transform="translate(0 -.03)"/><path class="cls-4" d="M37.06 197.34s89.27 9.81 147.1-31.62c69.62-49.57 82.8-24.74 98.37-14.3 20.27 13.58 88 29.71 117.6 10.93" transform="translate(0 -.03)"/><path class="cls-4" d="M38.43 201.44s91.47 3.45 149.12-38.07c68.6-49.17 81.78-24.27 97-13.09 18.23 13.39 86.37 33.61 115.58 13.16" transform="translate(0 -.03)"/><path class="cls-4" d="M39.8 205.44s93.67-2.91 151.14-44.52c67.58-48.77 80.83-23.86 95.56-11.88 16.34 13.3 84.81 37.6 113.63 15.51" transform="translate(0 -.03)"/><path class="cls-4" d="M41.13 209.49s95.87-9.27 153.17-51c66.56-48.36 80-23.52 94.15-10.67 14.49 13.17 83.2 41.55 111.64 17.8" transform="translate(0 -.03)"/><path class="cls-4" d="M42.53 213.54s98.08-15.63 155.2-57.42c65.54-48 79.27-23.25 92.74-9.45 12.75 13.06 81.66 45.49 109.66 20.08" transform="translate(0 -.03)"/><use width="4" height="4" transform="matrix(.95 0 0 -.87 5.65 104.96)" xlink:href="#RED"/><use width="4" height="4" transform="matrix(.95 0 0 -.87 13.1 105.82)" xlink:href="#RED"/><use width="4" height="4" transform="matrix(.95 0 0 -.87 9.72 115.7)" xlink:href="#RED"/><use width="4" height="4" transform="matrix(.95 0 0 -.87 11.22 124.82)" xlink:href="#RED"/><use width="4" height="4" transform="matrix(.95 0 0 -.87 20.14 120.81)" xlink:href="#RED"/><use width="4" height="4" transform="matrix(.95 0 0 -.87 16.39 130.19)" xlink:href="#RED"/><use width="4" height="4" transform="matrix(.95 0 0 -.87 26.07 125.69)" xlink:href="#RED"/><use width="4" height="4" transform="matrix(.95 0 0 -.87 22.67 136.18)" xlink:href="#RED"/><use width="4" height="4" transform="matrix(.95 0 0 -.87 32.7 135.77)" xlink:href="#RED"/><use width="4" height="4" transform="matrix(.95 0 0 -.87 28.26 145.06)" xlink:href="#RED"/><use width="4" height="4" transform="matrix(.95 0 0 -.87 38.54 140.31)" xlink:href="#RED"/><use width="4" height="4" transform="matrix(.95 0 0 -.87 38.54 148.65)" xlink:href="#RED"/><use width="4" height="4" transform="matrix(.95 0 0 -.87 41.56 156.85)" xlink:href="#RED"/><use width="4" height="4" transform="matrix(.95 0 0 -.87 52.31 152.06)" xlink:href="#RED"/><use width="4" height="4" transform="matrix(.95 0 0 -.87 50.68 159.7)" xlink:href="#RED"/><use width="4" height="4" transform="matrix(.95 0 0 -.87 52.02 166.78)" xlink:href="#RED"/><use width="4" height="4" transform="matrix(.95 0 0 -.87 62.25 159.93)" xlink:href="#RED"/><use width="4" height="4" transform="matrix(.95 0 0 -.87 62.97 167.98)" xlink:href="#RED"/><use width="4" height="4" transform="matrix(.95 0 0 -.87 70.22 173.1)" xlink:href="#RED"/><use width="4" height="4" transform="matrix(.95 0 0 -.87 78.38 177.59)" xlink:href="#RED"/><use width="4" height="4" transform="matrix(.95 0 0 -.87 83.73 171.23)" xlink:href="#RED"/><use width="4" height="4" transform="matrix(.95 0 0 -.87 91.02 179.4)" xlink:href="#RED"/><use width="4" height="4" transform="matrix(.95 0 0 -.87 99.66 176.28)" xlink:href="#RED"/><use width="4" height="4" transform="matrix(.95 0 0 -.87 104.37 182.97)" xlink:href="#RED"/><use width="4" height="4" transform="matrix(.95 0 0 -.87 117.91 184.77)" xlink:href="#RED"/><use width="4" height="4" transform="matrix(.95 0 0 -.87 122.98 191.56)" xlink:href="#RED"/><use width="4" height="4" transform="matrix(.95 0 0 -.87 130.97 187.51)" xlink:href="#RED"/><use width="4" height="4" transform="matrix(.95 0 0 -.87 141.08 190.59)" xlink:href="#RED"/><use width="4" height="4" transform="matrix(.95 0 0 -.87 151.27 195.42)" xlink:href="#RED"/><use width="4" height="4" transform="matrix(.95 0 0 -.87 155.35 189.4)" xlink:href="#RED"/><use width="4" height="4" transform="matrix(.95 0 0 -.87 165.75 192.62)" xlink:href="#RED"/><use width="4" height="4" transform="matrix(.95 0 0 -.87 165.78 185.01)" xlink:href="#RED"/><use width="4" height="4" transform="matrix(.95 0 0 -.87 175.05 184.22)" xlink:href="#RED"/><use width="4" height="4" transform="matrix(.95 0 0 -.87 173.22 176.77)" xlink:href="#RED"/><use width="4" height="4" transform="matrix(.95 0 0 -.87 168.02 170.86)" xlink:href="#RED"/><use width="4" height="4" transform="matrix(.95 0 0 -.87 164.36 163.44)" xlink:href="#RED"/><use width="4" height="4" transform="matrix(.95 0 0 -.87 160.02 152.27)" xlink:href="#RED"/><use width="4" height="4" transform="matrix(1.16 .01 0 -1.06 160.02 142.79)" xlink:href="#RED"/><use width="4" height="4" transform="matrix(1.73 .01 .01 -1.58 152.74 136.35)" xlink:href="#RED"/><use width="4" height="4" transform="matrix(1.88 .01 .01 -1.71 155.43 127.9)" xlink:href="#RED"/><use width="4" height="4" transform="matrix(1.37 .01 .01 -1.25 154.43 115.81)" xlink:href="#RED"/><use width="4" height="4" transform="matrix(1.37 .01 .01 -1.25 153.21 106.31)" xlink:href="#RED"/><use width="4" height="4" transform="matrix(1.27 .01 .01 -1.16 151.92 93.21)" xlink:href="#RED"/><use width="4" height="4" transform="matrix(1.53 .01 .01 -1.4 151.48 81.06)" xlink:href="#RED"/><use width="4" height="4" transform="matrix(.99 0 0 -.9 150.91 69.7)" xlink:href="#RED"/><use width="4" height="4" transform="matrix(.99 0 0 -.9 158.19 65.03)" xlink:href="#RED"/><use width="4" height="4" transform="matrix(.98 0 0 -.89 153.22 59.19)" xlink:href="#RED"/><use width="4" height="4" transform="matrix(.96 0 0 -.88 159.61 54.49)" xlink:href="#RED"/><use width="4" height="4" transform="matrix(.95 0 0 -.87 166.61 56.24)" xlink:href="#RED"/><use width="4" height="4" transform="matrix(1.06 0 0 -.97 169.36 68.03)" xlink:href="#RED"/><use width="4" height="4" transform="matrix(1.79 .01 .01 -1.64 168.06 95.13)" xlink:href="#RED"/><use width="4" height="4" transform="matrix(1.42 .01 .01 -1.3 174.65 121.67)" xlink:href="#RED"/><use width="4" height="4" transform="matrix(1.32 .01 .01 -1.21 179.54 140.62)" xlink:href="#RED"/><use width="4" height="4" transform="matrix(1.07 0 0 -.98 182.64 153.69)" xlink:href="#RED"/><use width="4" height="4" transform="matrix(1.11 0 0 -1.01 184.67 163.69)" xlink:href="#RED"/><use width="4" height="4" transform="matrix(1.05 0 0 -.96 190.85 169.05)" xlink:href="#RED"/><use width="4" height="4" transform="matrix(1.09 0 0 -1 197.83 161.53)" xlink:href="#RED"/><use width="4" height="4" transform="matrix(1.06 0 0 -.97 199.44 138.12)" xlink:href="#RED"/><use width="4" height="4" transform="matrix(1.17 .01 0 -1.07 200.27 118.16)" xlink:href="#RED"/><use width="4" height="4" transform="matrix(1.32 .01 .01 -1.21 197.62 107.83)" xlink:href="#RED"/><use width="4" height="4" transform="matrix(1.38 .01 .01 -1.26 197.76 96.76)" xlink:href="#RED"/><use width="4" height="4" transform="matrix(1.21 .01 0 -1.1 195.83 87.34)" xlink:href="#RED"/><use width="4" height="4" transform="matrix(.98 0 0 -.89 201.8 81.2)" xlink:href="#RED"/><use width="4" height="4" transform="matrix(.96 0 0 -.88 216.58 89.64)" xlink:href="#RED"/><use width="4" height="4" transform="matrix(.95 0 0 -.87 226.69 88.5)" xlink:href="#RED"/><use width="4" height="4" transform="matrix(1.07 0 0 -.98 236.07 90.86)" xlink:href="#RED"/><use width="4" height="4" transform="matrix(1.04 0 0 -.95 248.22 94.48)" xlink:href="#RED"/><use width="4" height="4" transform="matrix(.97 0 0 -.89 259.92 95.34)" xlink:href="#RED"/><use width="4" height="4" transform="matrix(1.04 0 0 -.95 278.29 88.32)" xlink:href="#RED"/><use width="4" height="4" transform="matrix(1.01 0 0 -.92 290.36 88.46)" xlink:href="#RED"/><use width="4" height="4" transform="matrix(1.07 0 0 -.97 301.02 88.45)" xlink:href="#RED"/><use width="4" height="4" transform="matrix(1.04 0 0 -.95 322.85 86.58)" xlink:href="#RED"/><use width="4" height="4" transform="matrix(.95 0 0 -.87 335.47 87.49)" xlink:href="#RED"/><use width="4" height="4" transform="matrix(.95 0 0 -.87 349.8 87.42)" xlink:href="#RED"/><use width="4" height="4" transform="matrix(.95 0 0 -.87 362.51 87.68)" xlink:href="#RED"/><use width="4" height="4" transform="matrix(.95 0 0 -.87 371.83 86.67)" xlink:href="#RED"/><use width="4" height="4" transform="matrix(1.17 .01 0 -1.07 374.14 94.58)" xlink:href="#RED"/><use width="4" height="4" transform="matrix(.95 0 0 -.87 382.67 92.01)" xlink:href="#RED"/><use width="4" height="4" transform="matrix(.95 0 0 -.87 386.83 98.78)" xlink:href="#RED"/><use width="4" height="4" transform="matrix(.95 0 0 -.87 390.77 104.82)" xlink:href="#RED"/><use width="4" height="4" transform="matrix(.95 0 0 -.87 392.55 116.64)" xlink:href="#RED"/><use width="4" height="4" transform="matrix(.98 0 0 -.9 384.95 118.6)" xlink:href="#RED"/><use width="4" height="4" transform="matrix(1.23 .01 0 -1.13 361 124.12)" xlink:href="#RED"/><use width="4" height="4" transform="matrix(1.12 0 0 -1.02 336.26 123.95)" xlink:href="#RED"/><use width="4" height="4" transform="matrix(1.66 .01 .01 -1.52 319.13 124.24)" xlink:href="#RED"/><use width="4" height="4" transform="matrix(1.04 0 0 -.95 301.6 125.31)" xlink:href="#RED"/><use width="4" height="4" transform="matrix(1.28 .01 .01 -1.17 299.34 118.71)" xlink:href="#RED"/><use width="4" height="4" transform="matrix(1.03 0 0 -.94 293.39 127.36)" xlink:href="#RED"/><use width="4" height="4" transform="matrix(2.32 .01 .01 -2.12 301.46 107.77)" xlink:href="#RED"/><use width="4" height="4" transform="matrix(1.5 .01 .01 -1.37 321.29 104.71)" xlink:href="#RED"/><use width="4" height="4" transform="matrix(1.53 .01 .01 -1.4 345.73 107.65)" xlink:href="#RED"/><use width="4" height="4" transform="matrix(1.61 .01 .01 -1.47 361.85 109.64)" xlink:href="#RED"/><use width="4" height="4" transform="matrix(1.19 .01 0 -1.09 372.67 119.16)" xlink:href="#RED"/><use width="4" height="4" transform="matrix(1.16 0 0 -1.06 378.39 131.22)" xlink:href="#RED"/><use width="4" height="4" transform="matrix(1.04 0 0 -.95 378.22 138.35)" xlink:href="#RED"/><use width="4" height="4" transform="matrix(.95 0 0 -.87 386.23 140.09)" xlink:href="#RED"/><use width="4" height="4" transform="matrix(.95 0 0 -.87 393.01 136.65)" xlink:href="#RED"/><use width="4" height="4" transform="matrix(.95 0 0 -.87 393.54 144.36)" xlink:href="#RED"/><use width="4" height="4" transform="matrix(.95 0 0 -.87 387.6 149.56)" xlink:href="#RED"/><use width="4" height="4" transform="matrix(.95 0 0 -.87 378.66 150.16)" xlink:href="#RED"/><use width="4" height="4" transform="matrix(.95 0 0 -.87 363.57 146.87)" xlink:href="#RED"/><use width="4" height="4" transform="matrix(.95 0 0 -.87 349.45 144.26)" xlink:href="#RED"/><use width="4" height="4" transform="matrix(.95 0 0 -.87 341.39 143.27)" xlink:href="#RED"/><use width="4" height="4" transform="matrix(.95 0 0 -.87 313.39 134.26)" xlink:href="#RED"/><use width="4" height="4" transform="matrix(1.44 .01 .01 -1.32 286.26 120.2)" xlink:href="#RED"/><use width="4" height="4" transform="matrix(2.57 .01 .01 -2.35 279.96 110.66)" xlink:href="#RED"/><use width="4" height="4" transform="matrix(1.41 .01 .01 -1.29 272.19 104.27)" xlink:href="#RED"/><use width="4" height="4" transform="matrix(1.1 0 0 -1.01 269.55 93.53)" xlink:href="#RED"/><use width="4" height="4" transform="matrix(.95 0 0 -.87 254.8 83.92)" xlink:href="#RED"/><use width="4" height="4" transform="matrix(.95 0 0 -.87 236.5 79.32)" xlink:href="#RED"/><use width="4" height="4" transform="matrix(.95 0 0 -.87 220.52 76.17)" xlink:href="#RED"/><use width="4" height="4" transform="matrix(.95 0 0 -.87 213.89 81.22)" xlink:href="#RED"/><use width="4" height="4" transform="matrix(.97 0 0 -.89 218.96 107.87)" xlink:href="#RED"/><use width="4" height="4" transform="matrix(.95 0 0 -.87 219.96 126.81)" xlink:href="#RED"/><use width="4" height="4" transform="matrix(.95 0 0 -.87 218.1 136.32)" xlink:href="#RED"/><use width="4" height="4" transform="matrix(.96 0 0 -.88 209.92 139.97)" xlink:href="#RED"/><use width="4" height="4" transform="matrix(1.45 .01 .01 -1.32 191.01 126.4)" xlink:href="#RED"/><use width="4" height="4" transform="matrix(1.85 .01 .01 -1.69 181.68 98.51)" xlink:href="#RED"/><use width="4" height="4" transform="matrix(1.1 0 0 -1.01 181.96 75.95)" xlink:href="#RED"/><use width="4" height="4" transform="matrix(.98 0 0 -.89 10.32 113.76)" xlink:href="#RED"/><use width="4" height="4" transform="matrix(.98 0 0 -.89 14.72 108.85)" xlink:href="#RED"/><use width="4" height="4" transform="matrix(.98 0 0 -.89 20.06 121.12)" xlink:href="#RED"/><use width="4" height="4" transform="matrix(.98 0 0 -.89 29.54 124.98)" xlink:href="#RED"/><use width="4" height="4" transform="matrix(.98 0 0 -.89 37.22 131.91)" xlink:href="#RED"/><use width="4" height="4" transform="matrix(.98 0 0 -.89 46.77 140.07)" xlink:href="#RED"/><use width="4" height="4" transform="matrix(.98 0 0 -.89 55.02 145.23)" xlink:href="#RED"/><use width="4" height="4" transform="matrix(.98 0 0 -.89 62 142.83)" xlink:href="#RED"/><use width="4" height="4" transform="matrix(.98 0 0 -.89 72.87 144.43)" xlink:href="#RED"/><use width="4" height="4" transform="matrix(.98 0 0 -.89 65.11 130.37)" xlink:href="#RED"/><use width="4" height="4" transform="matrix(.98 0 0 -.89 50.2 126.44)" xlink:href="#RED"/><use width="4" height="4" transform="matrix(.98 0 0 -.89 53.31 132.76)" xlink:href="#RED"/><use width="4" height="4" transform="matrix(1.08 0 0 -.98 83.08 150.4)" xlink:href="#RED"/><use width="4" height="4" transform="matrix(.98 0 0 -.89 99.98 146.99)" xlink:href="#RED"/><use width="4" height="4" transform="matrix(1.02 0 0 -.93 120.79 144.3)" xlink:href="#RED"/><use width="4" height="4" transform="matrix(1.44 0 0 -1.31 128.88 137.3)" xlink:href="#RED"/><use width="4" height="4" transform="matrix(1.49 0 0 -1.36 136.63 124.54)" xlink:href="#RED"/><use width="4" height="4" transform="matrix(1.26 0 0 -1.15 119.06 129.47)" xlink:href="#RED"/><use width="4" height="4" transform="matrix(.98 0 0 -.89 101.23 130.36)" xlink:href="#RED"/><use width="4" height="4" transform="matrix(1.68 0 0 -1.52 84.93 137.98)" xlink:href="#RED"/><use width="4" height="4" transform="matrix(1.18 0 0 -1.07 79.91 127.6)" xlink:href="#RED"/><use width="4" height="4" transform="matrix(1.24 0 0 -1.13 77.27 135.4)" xlink:href="#RED"/><use width="4" height="4" transform="matrix(1.01 0 0 -.92 137.44 142.15)" xlink:href="#RED"/><use width="4" height="4" transform="matrix(1.33 0 0 -1.21 146.25 134.98)" xlink:href="#RED"/><use width="4" height="4" transform="matrix(1.73 0 0 -1.57 147.08 124.68)" xlink:href="#RED"/><use width="4" height="4" transform="matrix(.98 0 0 -.89 167.11 120.35)" xlink:href="#RED"/><use width="4" height="4" transform="matrix(.98 0 0 -.89 181 112.99)" xlink:href="#RED"/><use width="4" height="4" transform="matrix(.98 0 0 -.89 181.55 104.23)" xlink:href="#RED"/><use width="4" height="4" transform="matrix(.98 0 0 -.89 183.19 95.23)" xlink:href="#RED"/><use width="4" height="4" transform="matrix(.98 0 0 -.89 191.32 93.58)" xlink:href="#RED"/><use width="4" height="4" transform="matrix(.98 0 0 -.89 165.21 101.28)" xlink:href="#RED"/><use width="4" height="4" transform="matrix(.98 0 0 -.89 151.8 105.05)" xlink:href="#RED"/><use width="4" height="4" transform="matrix(.98 0 0 -.89 159.05 108.44)" xlink:href="#RED"/><use width="4" height="4" transform="matrix(.98 0 0 -.89 180 86.65)" xlink:href="#RED"/><use width="4" height="4" transform="matrix(.98 0 0 -.89 189.83 83.4)" xlink:href="#RED"/><use width="4" height="4" transform="matrix(.98 0 0 -.89 197.88 76.84)" xlink:href="#RED"/><use width="4" height="4" transform="matrix(.98 0 0 -.89 207.69 71.92)" xlink:href="#RED"/><use width="4" height="4" transform="matrix(1.01 0 0 -.92 216.58 62.25)" xlink:href="#RED"/><use width="4" height="4" transform="matrix(.98 0 0 -.89 228.85 45.15)" xlink:href="#RED"/><use width="4" height="4" transform="matrix(.98 0 0 -.89 229.52 25.84)" xlink:href="#RED"/><use width="4" height="4" transform="matrix(.98 0 0 -.89 234.25 30.88)" xlink:href="#RED"/><use width="4" height="4" transform="matrix(1.09 0 0 -.99 215.75 42.46)" xlink:href="#RED"/><use width="4" height="4" transform="matrix(1.13 0 0 -1.03 196.8 48.12)" xlink:href="#RED"/><use width="4" height="4" transform="matrix(1.15 0 0 -1.04 194.21 56.49)" xlink:href="#RED"/><use width="4" height="4" transform="matrix(2.21 0 0 -2.01 201.58 57.91)" xlink:href="#RED"/><use width="4" height="4" transform="matrix(.98 0 0 -.89 220.47 33.01)" xlink:href="#RED"/><use width="4" height="4" transform="matrix(.98 0 0 -.89 237.96 20.16)" xlink:href="#RED"/><use width="4" height="4" transform="matrix(1.07 0 0 -.97 250.32 15.77)" xlink:href="#RED"/><use width="4" height="4" transform="matrix(1.03 0 0 -.94 259.94 15.25)" xlink:href="#RED"/><use width="4" height="4" transform="matrix(.98 0 0 -.89 272.79 14.63)" xlink:href="#RED"/><use width="4" height="4" transform="matrix(1 0 0 -.91 284.67 18.28)" xlink:href="#RED"/><use width="4" height="4" transform="matrix(.98 0 0 -.89 292.01 32.59)" xlink:href="#RED"/><use width="4" height="4" transform="matrix(.98 0 0 -.89 294.48 51.06)" xlink:href="#RED"/><use width="4" height="4" transform="matrix(.98 0 0 -.89 292.89 41.06)" xlink:href="#RED"/><use width="4" height="4" transform="matrix(1.21 0 0 -1.1 271.35 35.3)" xlink:href="#RED"/><use width="4" height="4" transform="matrix(1.25 0 0 -1.14 271.54 24.62)" xlink:href="#RED"/><use width="4" height="4" transform="matrix(1.14 0 0 -1.04 262.05 28.78)" xlink:href="#RED"/><use width="4" height="4" transform="matrix(1.22 0 0 -1.11 245.13 43.97)" xlink:href="#RED"/><use width="4" height="4" transform="matrix(1 0 0 -.91 241.35 37.35)" xlink:href="#RED"/><use width="4" height="4" transform="matrix(1.43 0 0 -1.3 249.63 32.83)" xlink:href="#RED"/><use width="4" height="4" transform="matrix(1.21 0 0 -1.1 281.69 31.2)" xlink:href="#RED"/><use width="4" height="4" transform="matrix(.98 0 0 -.89 287.6 47.75)" xlink:href="#RED"/><use width="4" height="4" transform="matrix(.98 0 0 -.89 304.98 62.14)" xlink:href="#RED"/><use width="4" height="4" transform="matrix(1.38 0 0 -1.26 319.45 77.94)" xlink:href="#RED"/><use width="4" height="4" transform="matrix(.98 0 0 -.89 332.67 84.97)" xlink:href="#RED"/><use width="4" height="4" transform="matrix(.98 0 0 -.89 347.26 95.21)" xlink:href="#RED"/><use width="4" height="4" transform="matrix(.98 0 0 -.89 354.17 102.11)" xlink:href="#RED"/><use width="4" height="4" transform="matrix(.98 0 0 -.89 363.85 110.08)" xlink:href="#RED"/><use width="4" height="4" transform="matrix(.98 0 0 -.89 373.92 121.4)" xlink:href="#RED"/><use width="4" height="4" transform="matrix(.98 0 0 -.89 382.01 118.66)" xlink:href="#RED"/><use width="4" height="4" transform="matrix(1.03 0 0 -.93 390.1 96.86)" xlink:href="#RED"/><use width="4" height="4" transform="matrix(.98 0 0 -.89 393.1 78.29)" xlink:href="#RED"/><use width="4" height="4" transform="matrix(.98 0 0 -.89 391.13 62.99)" xlink:href="#RED"/><use width="4" height="4" transform="matrix(.98 0 0 -.89 389.64 54.25)" xlink:href="#RED"/><use width="4" height="4" transform="matrix(.98 0 0 -.89 390.33 44.42)" xlink:href="#RED"/><use width="4" height="4" transform="matrix(.98 0 0 -.89 377.89 70.79)" xlink:href="#RED"/><use width="4" height="4" transform="matrix(1.08 0 0 -.99 372.05 82.48)" xlink:href="#RED"/><use width="4" height="4" transform="matrix(.98 0 0 -.89 365.82 93.17)" xlink:href="#RED"/><use width="4" height="4" transform="matrix(.98 0 0 -.89 349 83.63)" xlink:href="#RED"/><use width="4" height="4" transform="matrix(1.12 0 0 -1.02 326.82 63.19)" xlink:href="#RED"/><use width="4" height="4" transform="matrix(.98 0 0 -.89 325.22 50.77)" xlink:href="#RED"/><use width="4" height="4" transform="matrix(.98 0 0 -.89 329.69 55.41)" xlink:href="#RED"/><use width="4" height="4" transform="matrix(.98 0 0 -.89 344.48 75.35)" xlink:href="#RED"/><use width="4" height="4" transform="matrix(.98 0 0 -.89 354.07 75.24)" xlink:href="#RED"/><use width="4" height="4" transform="matrix(.98 0 0 -.89 369.83 58.35)" xlink:href="#RED"/><use width="4" height="4" transform="matrix(.98 0 0 -.89 373.82 42.41)" xlink:href="#RED"/><use width="4" height="4" transform="matrix(.98 0 0 -.89 368.35 39.1)" xlink:href="#RED"/><use width="4" height="4" transform="matrix(.98 0 0 -.89 364.73 50.69)" xlink:href="#RED"/><use width="4" height="4" transform="matrix(.98 0 0 -.89 355.04 63.8)" xlink:href="#RED"/><use width="4" height="4" transform="matrix(1.39 0 0 -1.26 316.32 63.36)" xlink:href="#RED"/><use width="4" height="4" transform="matrix(.98 0 0 -.89 309.91 50.57)" xlink:href="#RED"/><use width="4" height="4" transform="matrix(.98 0 0 -.89 306.35 37.06)" xlink:href="#RED"/><use width="4" height="4" transform="matrix(.98 0 0 -.89 297.51 22.79)" xlink:href="#RED"/><use width="4" height="4" transform="matrix(.99 0 0 -.98 10.31 111.4)" xlink:href="#RED"/><use width="4" height="4" transform="matrix(.99 0 0 -.98 4.57 115.07)" xlink:href="#RED"/><use width="4" height="4" transform="matrix(.99 0 0 -.98 11.31 128.21)" xlink:href="#RED"/><use width="4" height="4" transform="matrix(.99 0 0 -.98 21.28 141.91)" xlink:href="#RED"/><use width="4" height="4" transform="matrix(.99 0 0 -.98 22.05 154.44)" xlink:href="#RED"/><use width="4" height="4" transform="matrix(.99 0 0 -.98 26.71 161.59)" xlink:href="#RED"/><use width="4" height="4" transform="matrix(.99 0 0 -.98 30.29 170.39)" xlink:href="#RED"/><use width="4" height="4" transform="matrix(.99 0 0 -.98 34.29 194.6)" xlink:href="#RED"/><use width="4" height="4" transform="matrix(.99 0 0 -.98 26.77 177.93)" xlink:href="#RED"/><use width="4" height="4" transform="matrix(.99 0 0 -.98 13.94 148.81)" xlink:href="#RED"/><use width="4" height="4" transform="matrix(.99 0 0 -.98 16.09 139.84)" xlink:href="#RED"/><use width="4" height="4" transform="matrix(.99 0 0 -.98 25.13 148.37)" xlink:href="#RED"/><use width="4" height="4" transform="matrix(.99 0 0 -.98 43.75 185.39)" xlink:href="#RED"/><use width="4" height="4" transform="matrix(1.37 0 0 -1.37 61.33 214.04)" xlink:href="#RED"/><use width="4" height="4" transform="matrix(.99 0 0 -.98 72.26 236.38)" xlink:href="#RED"/><use width="4" height="4" transform="matrix(.99 0 0 -.98 78.38 240.99)" xlink:href="#RED"/><use width="4" height="4" transform="matrix(1.04 0 0 -1.04 92.18 222.18)" xlink:href="#RED"/><use width="4" height="4" transform="matrix(.99 0 0 -.98 108.62 203.58)" xlink:href="#RED"/><use width="4" height="4" transform="matrix(.99 0 0 -.98 122.88 199.88)" xlink:href="#RED"/><use width="4" height="4" transform="matrix(.99 0 0 -.98 118.48 210.06)" xlink:href="#RED"/><use width="4" height="4" transform="matrix(.99 0 0 -.98 103.16 218.87)" xlink:href="#RED"/><use width="4" height="4" transform="matrix(.99 0 0 -.98 111.51 219.59)" xlink:href="#RED"/><use width="4" height="4" transform="matrix(.99 0 0 -.98 141.67 210.93)" xlink:href="#RED"/><use width="4" height="4" transform="matrix(.99 0 0 -.98 167.66 204.86)" xlink:href="#RED"/><use width="4" height="4" transform="matrix(1.43 0 0 -1.43 181.75 198.62)" xlink:href="#RED"/><use width="4" height="4" transform="matrix(.99 0 0 -.98 204.85 176.17)" xlink:href="#RED"/><use width="4" height="4" transform="matrix(.99 0 0 -.98 214.21 167.26)" xlink:href="#RED"/><use width="4" height="4" transform="matrix(1.62 0 0 -1.61 226.16 152.99)" xlink:href="#RED"/><use width="4" height="4" transform="matrix(.99 0 0 -.98 247.32 135.36)" xlink:href="#RED"/><use width="4" height="4" transform="matrix(1.45 0 0 -1.45 237.63 147.66)" xlink:href="#RED"/><use width="4" height="4" transform="matrix(.99 0 0 -.98 208.28 156.27)" xlink:href="#RED"/><use width="4" height="4" transform="matrix(.99 0 0 -.98 192.83 162.48)" xlink:href="#RED"/><use width="4" height="4" transform="matrix(.99 0 0 -.98 177.38 164.27)" xlink:href="#RED"/><use width="4" height="4" transform="matrix(.99 0 0 -.98 178.6 171.2)" xlink:href="#RED"/><use width="4" height="4" transform="matrix(1.51 0 0 -1.5 237.47 167.45)" xlink:href="#RED"/><use width="4" height="4" transform="matrix(1.15 0 0 -1.15 259.25 159.65)" xlink:href="#RED"/><use width="4" height="4" transform="matrix(1.02 0 0 -1.02 264.23 151.08)" xlink:href="#RED"/><use width="4" height="4" transform="matrix(.99 0 0 -.98 264.39 179.76)" xlink:href="#RED"/><use width="4" height="4" transform="matrix(.99 0 0 -.98 275.79 180.73)" xlink:href="#RED"/><use width="4" height="4" transform="matrix(.99 0 0 -.98 300.04 165.29)" xlink:href="#RED"/><use width="4" height="4" transform="matrix(.99 0 0 -.98 316.1 157.39)" xlink:href="#RED"/><use width="4" height="4" transform="matrix(.99 0 0 -.98 324.98 162.88)" xlink:href="#RED"/><use width="4" height="4" transform="matrix(.99 0 0 -.98 328.39 176.17)" xlink:href="#RED"/><use width="4" height="4" transform="matrix(.99 0 0 -.99 343.1 175.07)" xlink:href="#RED"/><use width="4" height="4" transform="matrix(2.15 0 0 -2.14 360.48 170.35)" xlink:href="#RED"/><use width="4" height="4" transform="matrix(.99 0 0 -.98 369.66 155.05)" xlink:href="#RED"/><use width="4" height="4" transform="matrix(.99 0 0 -.98 377.07 158.4)" xlink:href="#RED"/><use width="4" height="4" transform="matrix(.99 0 0 -.98 377.32 146.89)" xlink:href="#RED"/><use width="4" height="4" transform="matrix(.99 0 0 -.98 385.47 147.06)" xlink:href="#RED"/><use width="4" height="4" transform="matrix(.99 0 0 -.98 390.01 153.71)" xlink:href="#RED"/><use width="4" height="4" transform="matrix(.99 0 0 -.98 393.07 167.61)" xlink:href="#RED"/><use width="4" height="4" transform="matrix(.99 0 0 -.98 387.01 175.25)" xlink:href="#RED"/><use width="4" height="4" transform="matrix(.99 0 0 -.98 370.61 182.08)" xlink:href="#RED"/><use width="4" height="4" transform="matrix(.99 0 0 -.98 338.14 163.26)" xlink:href="#RED"/><use width="4" height="4" transform="matrix(.99 0 0 -.98 337.07 154.36)" xlink:href="#RED"/><use width="4" height="4" transform="matrix(.99 0 0 -.98 314.26 169.21)" xlink:href="#RED"/><use width="4" height="4" transform="matrix(.99 0 0 -.98 285.67 169.06)" xlink:href="#RED"/><use width="4" height="4" transform="matrix(.99 0 0 -.98 276.89 148.24)" xlink:href="#RED"/><use width="4" height="4" transform="matrix(.99 0 0 -.98 272.64 137.09)" xlink:href="#RED"/><use width="4" height="4" transform="matrix(1.5 0 0 -1.5 250.07 148.72)" xlink:href="#RED"/><use width="4" height="4" transform="matrix(.99 0 0 -.98 229.77 174.69)" xlink:href="#RED"/><use width="4" height="4" transform="matrix(.99 0 0 -.98 229.64 182.74)" xlink:href="#RED"/><use width="4" height="4" transform="matrix(.99 0 0 -.98 203.94 186.63)" xlink:href="#RED"/><use width="4" height="4" transform="matrix(.99 0 0 -.98 194.89 185.15)" xlink:href="#RED"/><use width="4" height="4" transform="matrix(.99 0 0 -.98 214.3 187.25)" xlink:href="#RED"/><use width="4" height="4" transform="matrix(.99 0 0 -.98 254.08 183.05)" xlink:href="#RED"/><use width="4" height="4" transform="matrix(1.08 0 0 -1.08 269.66 168.04)" xlink:href="#RED"/><use width="4" height="4" transform="matrix(.99 0 0 -.98 283.04 152.54)" xlink:href="#RED"/><use width="4" height="4" transform="matrix(1.13 0 0 -1.13 275.26 160.49)" xlink:href="#RED"/><use width="4" height="4" transform="matrix(.99 0 0 -.98 196.69 175.89)" xlink:href="#RED"/><use width="4" height="4" transform="matrix(.99 0 0 -.98 152.11 187.64)" xlink:href="#RED"/><use width="4" height="4" transform="matrix(.99 0 0 -.98 132.77 191.96)" xlink:href="#RED"/><use width="4" height="4" transform="matrix(.99 0 0 -.98 98.88 208.83)" xlink:href="#RED"/><use width="4" height="4" transform="matrix(1.14 0 0 -1.14 83.52 227.45)" xlink:href="#RED"/><use width="4" height="4" transform="matrix(1.17 0 0 -1.17 67.22 228.23)" xlink:href="#RED"/><use width="4" height="4" transform="matrix(1.14 0 0 -1.14 53.04 222.07)" xlink:href="#RED"/><use width="4" height="4" transform="matrix(1.08 0 0 -1.07 56.77 203.8)" xlink:href="#RED"/><use width="4" height="4" transform="matrix(.99 0 0 -.98 58.95 196.36)" xlink:href="#RED"/></g></svg>